<svg width="100" height="26" viewBox="0 0 100 26" fill="none" xmlns="http://www.w3.org/2000/svg">
    <path fill-rule="evenodd" clip-rule="evenodd" d="M22.9909 24.6758H20.1493C18.2995 24.6758 17.5738 24.6097 16.781 24.0812C15.9548 23.5192 15.4923 22.8921 13.0814 18.8287C11.495 16.0866 10.6697 14.7654 9.74389 14.7654C9.41448 14.7654 9.18281 14.931 8.75385 15.2939L8.12579 15.8894C7.89412 16.1201 7.82896 16.2857 7.82896 16.6152V18.0025C7.82896 20.0514 7.96109 21.2731 8.42262 21.9998C9.0181 22.9907 10.1738 22.8921 10.1738 23.817C10.1738 24.3781 9.64525 24.6758 8.91855 24.6758H1.2543C0.528507 24.6758 0 24.3781 0 23.817C0 22.8586 1.28869 22.9907 1.84977 21.8351C2.21267 21.1084 2.3457 20.15 2.3457 18.0025V5.38439C2.3457 4.19525 2.27873 3.50204 1.41991 2.97353C0.826244 2.60973 0.197285 2.54366 0.197285 1.84955C0.197285 1.45317 0.561086 1.09027 1.32127 1.09027H8.85249C9.61267 1.09027 9.97557 1.45317 9.97557 1.84955C9.97557 2.51018 9.381 2.60973 8.78643 2.97353C7.89412 3.50204 7.82896 4.2948 7.82896 5.58258V11.8921C7.82896 12.0568 7.89412 12.1229 7.99367 12.1229C8.09231 12.1229 8.15837 12.0568 8.22534 11.9907L13.2796 6.67217C14.733 5.15271 15.5249 4.16267 15.5249 3.43507C15.5249 2.67579 14.5674 2.64231 14.5674 1.88303C14.5674 1.32104 14.9964 1.09027 15.6905 1.09027H22.5946C23.2878 1.09027 23.6507 1.42059 23.6507 1.84955C23.6507 2.57715 22.7267 2.70837 21.8344 3.17081C20.7448 3.73281 19.2914 4.62421 16.2851 7.63054L12.8824 11.0993C12.8163 11.1654 12.8163 11.198 12.8163 11.2314C12.8163 11.2975 12.8824 11.3636 12.9484 11.3636C13.1466 11.3636 13.3122 11.198 13.7412 11.198C15.1955 11.198 16.4498 13.5762 18.2009 16.3844C21.1077 21.0423 22.0661 22.1319 22.7593 22.6604C23.3864 23.1229 24.048 23.255 24.048 23.9165C24.048 24.3455 23.6851 24.6758 22.9909 24.6758Z" fill="#2A3C49"/>
    <path fill-rule="evenodd" clip-rule="evenodd" d="M34.8175 16.12C34.8175 15.9879 34.7849 15.9218 34.7188 15.9218C34.6519 15.9218 34.6193 15.9544 34.5206 16.0214C33.6618 16.5499 32.241 16.9463 31.0844 17.8377C30.1261 18.5318 29.7967 19.3245 29.7967 20.0178C29.7967 21.1743 30.622 21.9671 31.8446 21.9671C32.8356 21.9671 33.8591 21.3725 34.3876 20.3155C34.8175 19.4232 34.8175 18.4322 34.8175 16.4503V16.12ZM42.2826 22.7933C42.2826 23.2883 41.9197 23.7508 41.4899 24.1137C40.7632 24.7083 39.6401 25.0386 38.6491 25.0386C37.2283 25.0386 35.8084 24.3119 35.3786 22.5616C35.346 22.4295 35.346 22.3635 35.2799 22.3635C35.2473 22.3635 35.2129 22.3969 35.1143 22.5291C33.793 24.2458 31.7116 25.0386 29.7306 25.0386C27.1206 25.0386 24.5107 23.6187 24.5107 20.6458C24.5107 19.1264 25.2709 17.5734 26.889 16.615C28.508 15.6576 30.7876 15.063 32.3405 14.3689C33.3976 13.8739 34.8175 13.0476 34.8175 11.5616C34.8175 10.4051 34.0247 9.61232 32.6709 9.61232C31.9107 9.61232 31.2166 9.844 30.6546 10.2404C28.8392 11.463 28.7062 13.3454 27.2862 13.3454C26.1957 13.3454 25.8319 12.8168 25.8319 11.2639C25.8319 10.3725 25.9976 9.34807 26.46 8.78698C27.5505 7.39965 31.0844 7.06934 32.7686 7.06934C36.1722 7.06934 40.136 8.62137 40.136 12.6512C40.136 14.8648 39.9704 16.8467 39.9704 18.9942C39.9704 21.0757 39.9704 22.0006 41.4573 22.0657C41.9523 22.0992 42.2826 22.2974 42.2826 22.7933Z" fill="#2A3C49"/>
    <path fill-rule="evenodd" clip-rule="evenodd" d="M53.0805 22.5286C55.6244 22.5286 56.7475 19.8861 56.7475 16.6481C56.7475 13.0816 55.2271 10.6698 53.0145 10.6698C50.1403 10.6698 49.2814 13.7087 49.2814 16.3838C49.2814 20.4146 50.9005 22.5286 53.0805 22.5286ZM52.9149 25.039C51.0986 25.039 49.381 24.544 48.1249 23.7838C47.6959 23.5196 47.4643 23.4861 47.2995 23.4861C46.8371 23.4861 46.5729 23.6843 46.3747 24.1476C46.1104 24.7748 45.8136 25.039 45.3837 25.039C44.9213 25.039 44.4262 24.7748 44.4262 23.7178V6.60646C44.4262 5.64899 44.3919 4.95487 44.1946 4.42637C43.9964 3.89786 43.6335 3.60012 42.9719 3.33587C42.6091 3.17116 41.9475 3.00555 41.9475 2.44447C41.9475 1.94854 42.2778 1.71777 43.0706 1.51958C44.5575 1.18926 46.2416 0.693335 47.4977 0.230891C47.7946 0.132249 48.0923 0.00012207 48.4235 0.00012207C48.8516 0.00012207 49.2814 0.230891 49.2814 1.1232V9.51324C49.2814 9.74492 49.381 9.87704 49.5131 9.87704C49.6118 9.87704 49.7104 9.81098 49.8109 9.67885C51.0317 8.1594 52.981 7.0689 55.0615 7.0689C59.257 7.0689 61.933 10.8019 61.933 15.1621C61.933 20.3811 58.4977 25.039 52.9149 25.039Z" fill="#2A3C49"/>
    <path fill-rule="evenodd" clip-rule="evenodd" d="M72.0497 9.51344C69.8035 9.51344 68.5483 11.4293 68.5483 14.7659C68.5483 17.0781 69.3411 22.4953 72.6433 22.4953C74.9565 22.4953 76.1121 20.0175 76.1121 16.88C76.1121 14.5017 75.4189 9.51344 72.0497 9.51344ZM81.3981 15.9551C81.3981 20.9098 77.466 25.0392 72.313 25.0392C67.028 25.0392 63.2949 21.5704 63.2949 16.1533C63.2949 11.1985 67.2596 7.06909 72.5773 7.06909C77.8632 7.06909 81.3981 10.8012 81.3981 15.9551Z" fill="#2A3C49"/>
    <path fill-rule="evenodd" clip-rule="evenodd" d="M99.9945 5.83259C99.9684 5.71485 99.8683 5.61863 99.7512 5.60217C99.7473 5.60217 99.7408 5.60091 99.7343 5.60091C98.5464 5.52241 97.7098 5.81739 97.2089 5.9921C97.0723 6.04148 96.9188 6.09592 96.8251 6.11617C96.8199 6.02249 96.8303 5.82499 96.898 5.411C96.9136 5.31858 96.8733 5.21983 96.7926 5.16033C96.7497 5.12868 96.7015 5.10969 96.6534 5.10589C96.6079 5.10209 96.5636 5.11096 96.5246 5.13121C95.4825 5.66547 95.1156 6.17568 94.8202 6.5808C94.6459 6.82388 94.5132 7.00492 94.2751 7.14545C94.2504 6.68335 94.3844 6.25164 94.5353 5.76422C94.7695 5.00335 95.0362 4.13992 94.8345 2.86631C94.8176 2.76123 94.737 2.67641 94.6303 2.65488C94.616 2.65235 94.6017 2.64982 94.5887 2.64982C94.4963 2.64602 94.413 2.6916 94.3688 2.77136C94.2569 2.96886 94.0851 3.20433 93.8926 3.19927C93.7209 3.19674 93.0794 2.96253 92.0594 0.302623C91.9905 0.125381 91.9866 0.110189 91.9449 0.0696762C91.8968 0.0240996 91.8344 -0.00122072 91.7654 4.53007e-05C91.6978 0.00131132 91.634 0.0291637 91.5859 0.0772723C91.5442 0.119051 91.539 0.134243 91.4701 0.315284C90.45 3.00937 89.8099 3.24738 89.6382 3.25751C89.447 3.26764 89.2726 3.03975 89.162 2.84732C89.1191 2.77136 89.0319 2.72831 88.9422 2.73464C88.9278 2.73591 88.9135 2.73717 88.9005 2.74097C88.7951 2.76503 88.7119 2.85238 88.695 2.95493C88.492 4.21588 88.76 5.05778 88.9955 5.806C89.1464 6.28329 89.2804 6.70994 89.2544 7.1657C89.0163 7.03024 88.8875 6.85173 88.7106 6.61498C88.4165 6.22125 88.0457 5.72118 87.0062 5.21983C86.9672 5.20084 86.9216 5.19451 86.8787 5.19831C86.8293 5.20338 86.7811 5.22237 86.7395 5.25402C86.6588 5.31352 86.6172 5.411 86.6315 5.50089C86.6992 5.90348 86.7109 6.09592 86.7044 6.18707C86.612 6.16935 86.4598 6.11871 86.3219 6.07313C85.821 5.91108 84.9831 5.64142 83.7966 5.74523C83.7901 5.7465 83.7835 5.7465 83.7783 5.74776C83.6625 5.76675 83.5585 5.85917 83.535 5.97438C83.509 6.09465 83.5754 6.19973 83.6912 6.22125C84.0034 6.30101 85.2875 7.59108 85.1353 8.29372C85.0859 8.52161 84.8257 8.66467 84.3625 8.72923C84.2962 8.7381 84.2246 8.74569 84.1491 8.75202C84.1452 8.75202 84.1387 8.75329 84.1335 8.75329C84.0477 8.76595 83.9683 8.82039 83.9214 8.89761C83.8733 8.97991 83.872 9.07486 83.9202 9.14322C84.5056 10.0041 85.9381 10.532 86.8527 10.8296C86.3531 11.0283 85.7507 11.3815 85.3864 11.9614C85.3318 12.0475 85.3331 12.1513 85.389 12.2247C85.4372 12.2855 85.5139 12.3159 85.5959 12.307C85.6102 12.3045 85.6271 12.3019 85.644 12.2969C85.9055 12.2196 86.1098 12.1703 86.2542 12.1462C86.2009 12.2184 86.1358 12.2994 86.0812 12.369C85.7442 12.7881 85.2823 13.3679 85.3461 13.9262C85.3526 13.9933 85.3903 14.0503 85.4489 14.0845C85.4931 14.1085 85.5425 14.1187 85.5933 14.1136C85.6115 14.1123 85.631 14.1073 85.6505 14.1022C86.3869 13.8629 87.0257 13.6781 87.3536 13.6553C87.4382 13.649 87.4811 13.6553 87.5006 13.6591C87.5032 13.7313 87.4486 13.9288 87.191 14.4428C87.1428 14.5365 87.161 14.6441 87.2339 14.7124C87.282 14.7567 87.3471 14.7783 87.4134 14.7732C87.4473 14.7719 87.4837 14.7618 87.5162 14.7453C88.4894 14.2592 89.097 13.7528 89.5849 13.3464C90.1794 12.8539 90.5828 12.5222 91.3217 12.4893C91.3217 13.3135 91.1149 15.472 89.0762 16.6304C88.9877 16.6811 88.9396 16.7786 88.9526 16.8761C88.9643 16.9723 89.0384 17.0495 89.136 17.071C89.391 17.1267 89.5732 17.2229 89.6395 17.3306C89.6564 17.3584 89.6655 17.385 89.6655 17.4141C89.6681 17.4989 89.7137 17.5749 89.7891 17.6154C89.8282 17.6369 89.8724 17.6471 89.9153 17.6471C89.9544 17.6458 89.996 17.6357 90.0337 17.6154C90.2562 17.4964 90.8261 17.1318 91.3257 16.3063C91.9111 15.3315 92.1986 14.0541 92.1778 12.4956C92.9363 12.5349 93.3449 12.878 93.9459 13.3945C94.4351 13.8161 95.0414 14.3428 96.0133 14.8656C96.0471 14.8833 96.0809 14.8935 96.1174 14.8973C96.1824 14.9036 96.2475 14.8833 96.2956 14.839C96.3685 14.7719 96.388 14.6618 96.3385 14.563C96.0809 14.0326 96.025 13.83 96.0289 13.7566C96.0497 13.7528 96.0927 13.7477 96.1759 13.7553C96.5038 13.7857 97.1439 13.9883 97.8816 14.2503C97.8998 14.2567 97.9167 14.2617 97.9375 14.2643C97.9883 14.2706 98.0377 14.2605 98.0806 14.2364C98.1392 14.2035 98.1769 14.1453 98.1834 14.0756C98.2485 13.5009 97.7879 12.8957 97.4509 12.4602C97.3937 12.388 97.3299 12.3032 97.2753 12.2298C97.4197 12.2551 97.6253 12.3083 97.8868 12.3918C97.9037 12.3969 97.9193 12.3994 97.9349 12.4019C98.0156 12.4121 98.0936 12.3817 98.1405 12.3197C98.1964 12.2437 98.1977 12.1374 98.1431 12.0475C97.7801 11.4461 97.179 11.0802 96.6768 10.8726C97.5914 10.5751 99.0265 10.0332 99.6106 9.13309C99.6575 9.06093 99.6562 8.96345 99.608 8.87862C99.5625 8.79887 99.4819 8.74316 99.3973 8.7305C99.3921 8.7305 99.3856 8.72923 99.3804 8.72923C99.3062 8.72417 99.2347 8.71531 99.167 8.70771C98.7038 8.64314 98.4449 8.49755 98.3942 8.26334C98.242 7.54298 99.5261 6.18581 99.837 6.09465C99.9528 6.06807 100.02 5.95666 99.9945 5.83259Z" fill="#F02B2B"/>
</svg>